<svg viewBox="0 0 200 200" xmlns="http://www.w3.org/2000/svg">
    <!-- Outer compass ring -->
    <circle cx="100" cy="100" r="85" fill="none" stroke="url(#ringGradient)" stroke-width="2" opacity="0.4"/>
    <circle cx="100" cy="100" r="70" fill="none" stroke="url(#ringGradient)" stroke-width="1" opacity="0.3"/>
    
    <!-- Main compass points (N, E, S, W) -->
    <g transform="translate(100, 100)">
        <!-- North point with network -->
        <g transform="rotate(0)">
            <path d="M0,-75 L0,-60" stroke="url(#compassGradient)" stroke-width="3"/>
            <circle cx="0" cy="-75" r="6" fill="url(#hubGradient)"/>
            <!-- North network cluster -->
            <circle cx="-12" cy="-68" r="3" fill="#6366f1"/>
            <circle cx="12" cy="-68" r="3" fill="#8b5cf6"/>
            <circle cx="0" cy="-55" r="2" fill="#a78bfa"/>
            <!-- Connections -->
            <path d="M0,-75 L-12,-68" stroke="url(#connectionGradient)" stroke-width="1" opacity="0.4"/>
            <path d="M0,-75 L12,-68" stroke="url(#connectionGradient)" stroke-width="1" opacity="0.4"/>
            <path d="M0,-75 L0,-55" stroke="url(#connectionGradient)" stroke-width="1" opacity="0.3"/>
        </g>
        
        <!-- East point with network -->
        <g transform="rotate(90)">
            <path d="M0,-75 L0,-60" stroke="url(#compassGradient)" stroke-width="3"/>
            <circle cx="0" cy="-75" r="6" fill="url(#hubGradient)"/>
            <!-- East network cluster -->
            <circle cx="-10" cy="-65" r="3" fill="#4a7c59"/>
            <circle cx="10" cy="-65" r="3" fill="#6366f1"/>
            <circle cx="0" cy="-58" r="2" fill="#8b5cf6"/>
            <!-- Connections -->
            <path d="M0,-75 L-10,-65" stroke="url(#connectionGradient)" stroke-width="1" opacity="0.4"/>
            <path d="M0,-75 L10,-65" stroke="url(#connectionGradient)" stroke-width="1" opacity="0.4"/>
        </g>
        
        <!-- South point with network -->
        <g transform="rotate(180)">
            <path d="M0,-75 L0,-60" stroke="url(#compassGradient)" stroke-width="3"/>
            <circle cx="0" cy="-75" r="6" fill="url(#hubGradient)"/>
            <!-- South network cluster -->
            <circle cx="-12" cy="-68" r="3" fill="#8b5cf6"/>
            <circle cx="12" cy="-68" r="3" fill="#4a7c59"/>
            <circle cx="0" cy="-55" r="2" fill="#6366f1"/>
            <!-- Connections -->
            <path d="M0,-75 L-12,-68" stroke="url(#connectionGradient)" stroke-width="1" opacity="0.4"/>
            <path d="M0,-75 L12,-68" stroke="url(#connectionGradient)" stroke-width="1" opacity="0.4"/>
        </g>
        
        <!-- West point with network -->
        <g transform="rotate(270)">
            <path d="M0,-75 L0,-60" stroke="url(#compassGradient)" stroke-width="3"/>
            <circle cx="0" cy="-75" r="6" fill="url(#hubGradient)"/>
            <!-- West network cluster -->
            <circle cx="-10" cy="-65" r="3" fill="#a78bfa"/>
            <circle cx="10" cy="-65" r="3" fill="#8b5cf6"/>
            <circle cx="0" cy="-58" r="2" fill="#4a7c59"/>
            <!-- Connections -->
            <path d="M0,-75 L-10,-65" stroke="url(#connectionGradient)" stroke-width="1" opacity="0.4"/>
            <path d="M0,-75 L10,-65" stroke="url(#connectionGradient)" stroke-width="1" opacity="0.4"/>
        </g>
        
        <!-- Secondary compass points (NE, SE, SW, NW) -->
        <g transform="rotate(45)">
            <path d="M0,-55 L0,-45" stroke="url(#compassGradient)" stroke-width="2" opacity="0.7"/>
            <circle cx="0" cy="-55" r="4" fill="#6366f1"/>
            <circle cx="-8" cy="-48" r="2" fill="#8b5cf6"/>
            <circle cx="8" cy="-48" r="2" fill="#a78bfa"/>
            <path d="M0,-55 L-8,-48" stroke="url(#connectionGradient)" stroke-width="1" opacity="0.3"/>
            <path d="M0,-55 L8,-48" stroke="url(#connectionGradient)" stroke-width="1" opacity="0.3"/>
        </g>
        
        <g transform="rotate(135)">
            <path d="M0,-55 L0,-45" stroke="url(#compassGradient)" stroke-width="2" opacity="0.7"/>
            <circle cx="0" cy="-55" r="4" fill="#8b5cf6"/>
            <circle cx="-8" cy="-48" r="2" fill="#4a7c59"/>
            <circle cx="8" cy="-48" r="2" fill="#6366f1"/>
            <path d="M0,-55 L-8,-48" stroke="url(#connectionGradient)" stroke-width="1" opacity="0.3"/>
            <path d="M0,-55 L8,-48" stroke="url(#connectionGradient)" stroke-width="1" opacity="0.3"/>
        </g>
        
        <g transform="rotate(225)">
            <path d="M0,-55 L0,-45" stroke="url(#compassGradient)" stroke-width="2" opacity="0.7"/>
            <circle cx="0" cy="-55" r="4" fill="#4a7c59"/>
            <circle cx="-8" cy="-48" r="2" fill="#a78bfa"/>
            <circle cx="8" cy="-48" r="2" fill="#8b5cf6"/>
            <path d="M0,-55 L-8,-48" stroke="url(#connectionGradient)" stroke-width="1" opacity="0.3"/>
            <path d="M0,-55 L8,-48" stroke="url(#connectionGradient)" stroke-width="1" opacity="0.3"/>
        </g>
        
        <g transform="rotate(315)">
            <path d="M0,-55 L0,-45" stroke="url(#compassGradient)" stroke-width="2" opacity="0.7"/>
            <circle cx="0" cy="-55" r="4" fill="#a78bfa"/>
            <circle cx="-8" cy="-48" r="2" fill="#6366f1"/>
            <circle cx="8" cy="-48" r="2" fill="#4a7c59"/>
            <path d="M0,-55 L-8,-48" stroke="url(#connectionGradient)" stroke-width="1" opacity="0.3"/>
            <path d="M0,-55 L8,-48" stroke="url(#connectionGradient)" stroke-width="1" opacity="0.3"/>
        </g>
    </g>
    
    <!-- Central AI hub -->
    <circle cx="100" cy="100" r="12" fill="url(#centerGradient)"/>
    <circle cx="100" cy="100" r="6" fill="url(#innerGradient)" opacity="0.8"/>
    <circle cx="100" cy="100" r="2" fill="#e8f4f0"/>
    
    <!-- Inner discovery gems -->
    <circle cx="85" cy="100" r="2" fill="#6366f1"/>
    <circle cx="115" cy="100" r="2" fill="#8b5cf6"/>
    <circle cx="100" cy="85" r="2" fill="#4a7c59"/>
    <circle cx="100" cy="115" r="2" fill="#a78bfa"/>
    
    <!-- Radial connection lines from center -->
    <path d="M100,100 L100,25" stroke="url(#connectionGradient)" stroke-width="1" opacity="0.2"/>
    <path d="M100,100 L175,100" stroke="url(#connectionGradient)" stroke-width="1" opacity="0.2"/>
    <path d="M100,100 L100,175" stroke="url(#connectionGradient)" stroke-width="1" opacity="0.2"/>
    <path d="M100,100 L25,100" stroke="url(#connectionGradient)" stroke-width="1" opacity="0.2"/>
    
    <defs>
        <linearGradient id="ringGradient" x1="0%" y1="0%" x2="100%" y2="100%">
            <stop offset="0%" style="stop-color:#2d5f3f;stop-opacity:1" />
            <stop offset="50%" style="stop-color:#4a7c59;stop-opacity:1" />
            <stop offset="100%" style="stop-color:#6366f1;stop-opacity:1" />
        </linearGradient>
        <linearGradient id="compassGradient" x1="0%" y1="0%" x2="100%" y2="100%">
            <stop offset="0%" style="stop-color:#4a7c59;stop-opacity:1" />
            <stop offset="100%" style="stop-color:#6366f1;stop-opacity:1" />
        </linearGradient>
        <radialGradient id="hubGradient" cx="50%" cy="50%" r="50%">
            <stop offset="0%" style="stop-color:#a78bfa;stop-opacity:1" />
            <stop offset="50%" style="stop-color:#6366f1;stop-opacity:1" />
            <stop offset="100%" style="stop-color:#8b5cf6;stop-opacity:1" />
        </radialGradient>
        <radialGradient id="centerGradient" cx="50%" cy="50%" r="50%">
            <stop offset="0%" style="stop-color:#6366f1;stop-opacity:0.8" />
            <stop offset="70%" style="stop-color:#2d5f3f;stop-opacity:0.6" />
            <stop offset="100%" style="stop-color:#1a2f1a;stop-opacity:0.4" />
        </radialGradient>
        <radialGradient id="innerGradient" cx="50%" cy="50%" r="50%">
            <stop offset="0%" style="stop-color:#a78bfa;stop-opacity:1" />
            <stop offset="100%" style="stop-color:#6366f1;stop-opacity:1" />
        </radialGradient>
        <linearGradient id="connectionGradient" x1="0%" y1="0%" x2="100%" y2="100%">
            <stop offset="0%" style="stop-color:#6366f1;stop-opacity:0.6" />
            <stop offset="100%" style="stop-color:#8b5cf6;stop-opacity:0.6" />
        </linearGradient>
    </defs>
</svg> 